<svg width="900" height="700" viewBox="0 0 900 700" fill="none" xmlns="http://www.w3.org/2000/svg">
  <rect width="900" height="700" rx="40" fill="#0F2030"/>
  <rect x="70" y="80" width="760" height="540" rx="30" fill="#132B3D"/>
  <rect x="112" y="126" width="676" height="86" rx="18" fill="#17324A"/>
  <rect x="134" y="150" width="164" height="14" rx="7" fill="#4CC9F0" fill-opacity="0.95"/>
  <rect x="134" y="178" width="122" height="10" rx="5" fill="#90A3B3"/>
  <rect x="112" y="240" width="250" height="280" rx="24" fill="#102633"/>
  <rect x="142" y="278" width="190" height="160" rx="20" fill="#17324A"/>
  <circle cx="236" cy="328" r="44" fill="#F2C7A0"/>
  <rect x="192" y="372" width="90" height="68" rx="24" fill="#1D91C2"/>
  <rect x="170" y="418" width="140" height="18" rx="9" fill="#4CC9F0" fill-opacity="0.85"/>
  <rect x="382" y="240" width="390" height="280" rx="24" fill="#102633"/>
  <rect x="414" y="270" width="326" height="42" rx="12" fill="#17324A"/>
  <rect x="414" y="330" width="136" height="12" rx="6" fill="#90A3B3"/>
  <rect x="414" y="356" width="176" height="10" rx="5" fill="#90A3B3"/>
  <rect x="414" y="388" width="226" height="92" rx="16" fill="#17324A"/>
  <circle cx="642" cy="420" r="26" fill="#F2C7A0"/>
  <rect x="612" y="446" width="60" height="34" rx="14" fill="#7F5CFF"/>
  <rect x="430" y="510" width="250" height="14" rx="7" fill="#4CC9F0" fill-opacity="0.9"/>
  <rect x="430" y="536" width="214" height="10" rx="5" fill="#90A3B3"/>
  <circle cx="738" cy="188" r="34" fill="#4CC9F0" fill-opacity="0.2"/>
  <circle cx="738" cy="188" r="18" fill="#4CC9F0"/>
  <rect x="642" y="144" width="64" height="14" rx="7" fill="#7F5CFF"/>
  <rect x="642" y="168" width="84" height="10" rx="5" fill="#90A3B3"/>
</svg>
